<svg width="16" height="16" fill="none" xmlns="http://www.w3.org/2000/svg"><path d="M15.53 2.918h-3.954V1.412C11.576.565 10.918 0 10.072 0H6.306c-.47 0-.847.094-1.13.376-.282.283-.47.565-.47 1.036v1.412H.47c-.283 0-.471.188-.471.47s.188.565.47.565h1.977v9.976c0 .565.188 1.13.565 1.506.376.377.847.659 1.412.659h7.435c.565 0 1.035-.282 1.412-.659.376-.376.564-.941.564-1.506V3.86h1.694c.283 0 .471-.188.471-.47 0-.283-.188-.471-.47-.471zM5.646 1.506c0-.188.094-.377.188-.47C5.93.94 6.024.94 6.212.94h3.859c.282 0 .564.188.564.47v1.413H5.647V1.506zm7.153 12.33c0 .282-.094.658-.282.846-.189.189-.47.377-.66.377H4.425c-.283 0-.471-.094-.66-.377-.188-.188-.282-.564-.282-.847V3.86h9.412v9.976H12.8z" fill="currentColor"/></svg>
