<svg width="60" height="60" viewBox="0 0 60 60" fill="none" xmlns="http://www.w3.org/2000/svg">
<g opacity="0.2">
<path d="M60 30C60 46.5685 46.5685 60 30 60C13.4315 60 0 46.5685 0 30C0 13.4315 13.4315 0 30 0C46.5685 0 60 13.4315 60 30Z" fill="#575757"/>
<path d="M7.05558 49.3286L14.9276 39.9387C15.2057 39.4563 15.5858 39.3544 15.9659 39.2526C16.346 39.1507 16.7261 39.0489 17.2082 39.3276L26.247 48.7346L39.0501 32.6593C39.3282 32.1769 39.7083 32.075 40.0884 31.9732C40.0884 31.9732 40.4685 31.8713 40.9506 32.15L55.8912 45.1636C50.6812 54.0403 41.0366 60 30 60C20.7952 60 12.5587 55.8545 7.05558 49.3286Z" fill="#DEDEDE"/>
<path d="M24.2077 24.3994C25.8023 22.7484 26.9148 20.8188 26.6831 18.4335C26.4513 16.0482 25.8395 13.7648 24.1893 12.1674C22.5391 10.5701 20.6108 9.45523 18.2283 9.68574C15.7437 9.53568 13.5651 10.5273 11.9705 12.1783C10.3759 13.8293 9.2634 15.7589 9.49514 18.1442C9.34678 20.6313 10.3387 22.8129 11.9889 24.4103C13.6391 26.0076 15.5674 27.1225 17.95 26.892C20.4345 27.042 22.6131 26.0503 24.2077 24.3994Z" fill="#DEDEDE"/>
</g>
</svg>
