<svg width="264" height="229" viewBox="0 0 264 229" fill="none" xmlns="http://www.w3.org/2000/svg">
    <g>
        <path d="M98.5107 30.5878L6.13281 55.4493L52.0747 227.988L144.453 203.624L58.4967 180.254L98.5107 30.5878Z" fill="#DEDEDE"/>
        <path d="M116.629 0.419922L70.6045 173.319L213.751 211.924L259.776 39.0248L116.629 0.419922Z" fill="#DEDEDE"/>
        <path d="M125.844 23.7312L96.4395 134.194L210.956 165.078L240.361 54.6151L125.844 23.7312Z" fill="#575757"/>
        <path d="M169.647 72.3556C169.153 75.339 167.177 77.3279 164.707 78.8196C162.237 80.3113 159.273 80.8085 156.309 79.8141C153.345 79.3169 151.369 77.3279 149.887 74.8418C148.405 72.3556 147.911 69.3723 148.899 66.3889C149.393 63.4055 151.369 61.4166 153.839 59.9249C156.309 58.4332 159.273 57.936 162.237 58.9304C165.201 59.4277 167.177 61.4166 168.659 63.9027C170.141 66.3889 170.141 69.3723 169.647 72.3556ZM182.491 93.7365C181.997 93.2393 181.503 93.2393 181.503 93.2393C181.009 93.2393 180.515 93.2393 180.021 93.7365L159.273 109.151L151.369 94.731C150.875 94.2337 150.381 94.2337 149.887 94.2337C149.393 94.2337 148.899 94.2337 148.405 94.731L128.645 108.653L126.175 117.106C125.681 118.101 126.175 119.592 126.669 120.587C127.163 121.581 128.151 122.079 129.139 122.576L187.431 138.487C187.925 138.487 188.419 138.487 188.913 138.487C189.407 138.487 189.901 137.99 190.395 137.99C190.889 137.493 191.383 137.493 191.877 136.995C192.371 136.498 192.371 136.001 192.865 135.504L197.805 116.609L182.491 93.7365Z" fill="#DEDEDE"/>
    </g>
</svg>
