<svg width="60" height="90" fill="none" xmlns="http://www.w3.org/2000/svg"><g fill="currentColor"><path d="M30 30c-8.623 0-15.672 6.847-15.672 15.224 0 8.376 7.05 15.224 15.672 15.224 8.623 0 15.672-6.848 15.672-15.224C45.672 36.847 38.622 30 30 30zM59.872 73.587c-.456-1.022-1.064-1.976-1.748-2.861-3.496-4.631-8.892-7.696-14.972-8.445-.76-.068-1.596.068-2.204.477-3.191 2.11-6.991 3.2-10.943 3.2s-7.752-1.09-10.944-3.2c-.608-.41-1.444-.613-2.204-.477-6.08.749-11.552 3.814-14.971 8.445a16.317 16.317 0 00-1.748 2.86c-.228.41-.152.886.076 1.295.608.953 1.368 1.907 2.051 2.724a27.04 27.04 0 003.496 3.541c1.064.954 2.28 1.84 3.496 2.725C15.261 87.889 22.481 90 29.93 90s14.667-2.111 20.671-6.13a32.645 32.645 0 003.496-2.724c1.216-1.09 2.432-2.247 3.496-3.541.76-.886 1.444-1.771 2.052-2.724.38-.41.456-.886.228-1.294z"/></g></svg>
