<svg width="91" height="20" fill="none" xmlns="http://www.w3.org/2000/svg"><path d="M1.12 1.12v.984h8.287v1.129H1.121v2.103H0V0h9.407v1.12H1.121zM18.047 3.233a1.625 1.625 0 001.612-1.623 1.616 1.616 0 00-.982-1.484 1.575 1.575 0 00-.63-.126h-7.805v5.346h1.12V3.233h5.155l1.948 2.104h1.53l-1.948-2.104zm-6.684-2.1h6.671c.064-.002.127.011.186.037a.521.521 0 01.157.11.47.47 0 01.003.689.472.472 0 01-.346.147h-6.671v-.984zM29.66 1.626A2.691 2.691 0 0028.247.208 2.647 2.647 0 0027.206 0h-4.058a2.625 2.625 0 00-1.036.208 2.764 2.764 0 00-1.401 1.418 2.62 2.62 0 00-.211 1.034v2.677h1.096V3.796h7.143v1.54h1.121V2.66a2.598 2.598 0 00-.198-1.034zm-6.513-.494h4.058c.206-.002.41.04.598.123a1.539 1.539 0 01.948 1.412l-7.157.006a1.618 1.618 0 01.47-1.091 1.59 1.59 0 01.494-.334c.186-.08.386-.119.589-.116zM39.99 0v5.358h-1.117v-3.34L35.35 4.756l-3.523-2.736v3.34h-1.115V0l4.638 3.336L39.99 0zM42.153 1.909a1.567 1.567 0 00-.094.195h8.186v1.129h-8.186a1.568 1.568 0 00.438.61c.136.118.291.211.46.277.171.064.354.097.538.097h6.75v1.12h-6.75a2.68 2.68 0 01-2.459-1.629 2.666 2.666 0 01.57-2.925A2.654 2.654 0 0143.495 0h6.75v1.132h-6.75c-.184 0-.367.033-.539.098a1.574 1.574 0 00-.46.276c-.134.116-.25.251-.343.403zM60.663 0l-2.598 5.358-2.273-3.855-2.273 3.855L50.925 0h1.243l1.436 3.15L55.333 0h.928l1.716 3.15L59.422 0h1.24zM69.727 1.629A2.704 2.704 0 0068.303.208 2.632 2.632 0 0067.263 0H63.2a2.656 2.656 0 00-1.042.208 2.743 2.743 0 00-.85.575 2.666 2.666 0 00.85 4.343c.329.141.684.213 1.042.21h4.064c.358.003.712-.069 1.04-.21.317-.134.606-.328.85-.573a2.77 2.77 0 00.573-.845 2.705 2.705 0 000-2.079zm-2.463 2.588H63.2c-.206.002-.41-.04-.598-.123a1.589 1.589 0 01-.831-.827 1.512 1.512 0 01-.12-.597c-.001-.206.04-.41.12-.6a1.589 1.589 0 01.831-.827c.188-.084.392-.125.598-.123h4.064c.206-.002.41.04.599.122.184.08.352.192.494.334.14.145.254.314.334.5.082.189.124.394.123.6.001.206-.04.41-.123.598-.081.183-.194.35-.334.493-.14.138-.302.249-.482.327-.192.085-.4.126-.61.123zM78.58 3.233a1.625 1.625 0 001.612-1.616c0-.217-.043-.431-.13-.63a1.62 1.62 0 00-.853-.861A1.575 1.575 0 0078.58 0h-7.807v5.346h1.12V3.233h5.154l1.95 2.104h1.53L78.58 3.233zm-6.687-2.1h6.687c.063-.001.125.011.182.037a.538.538 0 01.271.27.442.442 0 01.003.368.603.603 0 01-.11.16.485.485 0 01-.346.148h-6.687v-.984zM86.114 2.67L91 5.336h-2.317l-3.866-2.113h-2.695v2.113h-1.109V0h1.109v2.113h2.695L88.683 0H91l-4.886 2.67zM20.203 8.94v1.83h-9.187v9.22H9.184v-9.22H0V8.94h20.203zM25.813 12.638a3.549 3.549 0 00-.374.912h18.037v1.827H25.439c.08.32.206.628.374.912a3.749 3.749 0 001.915 1.651c.415.157.856.237 1.3.236h14.448V20H29.028a5.396 5.396 0 01-2.15-.437 5.519 5.519 0 01-1.76-1.183 5.573 5.573 0 01-1.187-1.758 5.535 5.535 0 010-4.298 5.538 5.538 0 015.097-3.374h14.448v1.805H29.028a3.6 3.6 0 00-1.3.235 3.753 3.753 0 00-1.915 1.648zM66.909 12.308a5.629 5.629 0 00-1.178-1.742 5.521 5.521 0 00-1.75-1.185 5.42 5.42 0 00-2.154-.434h-8.884a5.358 5.358 0 00-2.144.434 5.55 5.55 0 00-2.938 2.934 5.34 5.34 0 00-.431 2.141V20h1.813v-3.39h16.284V20h1.82v-5.55a5.34 5.34 0 00-.438-2.142zm-13.966-1.553h8.884c.496-.003.987.097 1.442.292a3.754 3.754 0 011.971 1.978c.193.45.29.935.287 1.425v.346H49.243v-.346c0-.49.1-.975.293-1.425a3.832 3.832 0 011.968-1.978 3.592 3.592 0 011.439-.292zM90.984 8.94v11.05h-1.8v-7.65l-8.045 6.236-8.028-6.233v7.648h-1.804V8.94l9.832 7.345 9.845-7.346z" fill="currentColor"/></svg>
